#!OML:ASF G:\JayActor3\Patient Classification 1\Patient 1\Session 6\male.ASF
:FULLY-SPECIFIED
:DEGREES
1285
root 27.485 13.7546 -3.4189 198.955 -48.8885 -176.717
lowerback 38.3714 0.718379 3.08355
upperback 14.4197 -1.10539 0.829239
thorax -2.77348 -1.6289 -0.287971
lowerneck 11.1434 1.38296 4.10858
upperneck -37.2933 1.37799 0.283426
head -14.735 -1.13935 -0.533283
rclavicle -5.38706e-014 -2.53947e-014
rhumerus -3.71311 11.3881 -83.4262
rradius 85.46
rwrist 9.6074
rhand -35.2843 -4.78482
rfingers 7.12502
rthumb -8.41913 -34.597
lclavicle -5.38706e-014 -2.53947e-014
lhumerus -3.42911 -7.12507 83.809
lradius 84.4842
lwrist 16.0544
lhand -27.4468 4.93164
lfingers 7.12502
lthumb -0.851578 34.9097
rfemur -72.1023 -0.914108 23.7231
rtibia 80.7324
rfoot -27.6258 -10.7533
rtoes -5.80736
lfemur -70.567 2.55073 -21.5944
ltibia 78.0939
lfoot -26.4206 7.52087
ltoes -8.12586
1286
root 27.4847 13.7565 -3.42664 198.823 -48.7454 -176.632
lowerback 38.4 0.709373 3.01827
upperback 14.4589 -1.16413 0.676346
thorax -2.74474 -1.65722 -0.394924
lowerneck 11.2076 1.44163 4.08609
upperneck -37.3172 1.50236 0.375292
head -14.7602 -1.09659 -0.510009
rclavicle 7.95139e-015 2.19657e-014
rhumerus -3.71983 11.3785 -83.7071
rradius 85.4631
rwrist 9.70766
rhand -35.2338 -4.78199
rfingers 7.12502
rthumb -8.37045 -34.5961
lclavicle 7.95139e-015 2.19657e-014
lhumerus -3.36134 -7.21831 83.5055
lradius 84.4566
lwrist 16.1409
lhand -27.4408 5.00588
lfingers 7.12502
lthumb -0.845859 34.9839
rfemur -72.0014 -1.02774 23.8662
rtibia 80.72
rfoot -27.5659 -10.3863
rtoes -5.72251
lfemur -70.4232 2.44692 -21.4248
ltibia 78.1366
lfoot -26.5205 7.86243
ltoes -8.28046
1287
root 27.484 13.7579 -3.43351 198.761 -48.6567 -176.636
lowerback 38.464 0.65648 2.95598
upperback 14.4703 -1.26734 0.525147
thorax -2.75903 -1.70519 -0.484737
lowerneck 11.2729 1.5 3.97831
upperneck -37.3094 1.61709 0.497632
head -14.772 -1.04673 -0.458354
rclavicle 8.94531e-015 1.32192e-014
rhumerus -3.78951 11.4207 -83.959
rradius 85.5453
rwrist 9.69249
rhand -35.2332 -4.76732
rfingers 7.12502
rthumb -8.36983 -34.5815
lclavicle 8.94531e-015 1.32192e-014
lhumerus -3.29866 -7.24738 83.2406
lradius 84.4012
lwrist 16.2046
lhand -27.4256 5.10354
lfingers 7.12502
lthumb -0.831106 35.0817
rfemur -71.9274 -1.19785 23.9481
rtibia 80.7335
rfoot -27.5037 -10.029
rtoes -5.63856
lfemur -70.2762 2.24062 -21.3016
ltibia 78.152
lfoot -26.6043 8.24589
ltoes -8.39942
1288
root 27.4835 13.7574 -3.43996 198.754 -48.6255 -176.703
lowerback 38.5498 0.582838 2.91077
upperback 14.4605 -1.38196 0.395535
thorax -2.80342 -1.75734 -0.555541
lowerneck 11.3281 1.54 3.81704
upperneck -37.2804 1.69435 0.633729
head -14.773 -1.00514 -0.386291
rclavicle 9.54166e-015 -3.10104e-014
rhumerus -3.9127 11.473 -84.1496
rradius 85.7008
rwrist 9.54538
rhand -35.3072 -4.74255
rfingers 7.12502
rthumb -8.44127 -34.5539
lclavicle 9.54166e-015 -3.10104e-014
lhumerus -3.21555 -7.25259 83.0488
lradius 84.2984
lwrist 16.224
lhand -27.3834 5.19504
lfingers 7.12502
lthumb -0.790366 35.1733
rfemur -71.8891 -1.4021 23.9873
rtibia 80.7759
rfoot -27.4504 -9.7105
rtoes -5.55781
lfemur -70.1531 1.96399 -21.2139
ltibia 78.1611
lfoot -26.6689 8.62799
ltoes -8.46589
1289
root 27.4838 13.7553 -3.44629 198.79 -48.6476 -176.802
lowerback 38.6282 0.518642 2.88701
upperback 14.4453 -1.47144 0.30998
thorax -2.8498 -1.79743 -0.599737
lowerneck 11.3601 1.54369 3.64781
upperneck -37.25 1.70441 0.753679
head -14.7693 -0.989208 -0.309102
rclavicle 1.35174e-014 -3.04141e-014
rhumerus -4.0723 11.4933 -84.2448
rradius 85.9349
rwrist 9.26789
rhand -35.4625 -4.72586
rfingers 7.12502
rthumb -8.59116 -34.5311
lclavicle 1.35174e-014 -3.04141e-014
lhumerus -3.08198 -7.27653 82.9603
lradius 84.1452
lwrist 16.1921
lhand -27.3093 5.26972
lfingers 7.12502
lthumb -0.718868 35.2482
rfemur -71.8849 -1.61206 24.0022
rtibia 80.837
rfoot -27.4166 -9.459
rtoes -5.4983
lfemur -70.0742 1.64547 -21.1433
ltibia 78.1735
lfoot -26.7047 8.98901
ltoes -8.52258
1290
root 27.4849 13.7509 -3.45317 198.848 -48.7051 -176.902
lowerback 38.6777 0.491749 2.87973
upperback 14.4393 -1.50645 0.279677
thorax -2.87371 -1.81282 -0.61427
lowerneck 11.3598 1.50221 3.5165
upperneck -37.2329 1.63332 0.828459
head -14.7647 -1.0091 -0.244327
rclavicle -6.79844e-014 4.56211e-014
rhumerus -4.22762 11.4483 -84.2521
rradius 86.2086
rwrist 8.91445
rhand -35.6814 -4.72292
rfingers 7.12502
rthumb -8.80233 -34.5194
lclavicle -6.79844e-014 4.56211e-014
lhumerus -2.88824 -7.35085 82.9817
lradius 83.9561
lwrist 16.099
lhand -27.2108 5.32449
lfingers 7.12502
lthumb -0.623683 35.3033
rfemur -71.9112 -1.78706 24.0077
rtibia 80.9117
rfoot -27.4138 -9.29468
rtoes -5.46235
lfemur -70.0542 1.35684 -21.0865
ltibia 78.205
lfoot -26.7151 9.26651
ltoes -8.5656
1291
root 27.487 13.7457 -3.46075 198.906 -48.782 -176.978
lowerback 38.6909 0.511051 2.87959
upperback 14.4492 -1.48135 0.308767
thorax -2.86538 -1.802 -0.592396
lowerneck 11.3357 1.42268 3.44159
upperneck -37.2404 1.48978 0.837555
head -14.7658 -1.06173 -0.20488
rclavicle -6.91771e-014 1.17184e-013
rhumerus -4.36471 11.3484 -84.1733
rradius 86.5067
rwrist 8.53855
rhand -35.933 -4.7383
rfingers 7.12502
rthumb -9.04512 -34.5244
lclavicle -6.91771e-014 1.17184e-013
lhumerus -2.6569 -7.46765 83.1061
lradius 83.765
lwrist 15.9501
lhand -27.0986 5.3524
lfingers 7.12502
lthumb -0.515271 35.3315
rfemur -71.9453 -1.89952 24.0167
rtibia 80.9824
rfoot -27.4451 -9.22999
rtoes -5.47572
lfemur -70.0818 1.13731 -21.0319
ltibia 78.2539
lfoot -26.7036 9.43424
ltoes -8.60982
1292
root 27.49 13.7405 -3.46927 198.938 -48.8617 -177.006
lowerback 38.6779 0.579799 2.89611
upperback 14.4728 -1.38999 0.382199
thorax -2.83075 -1.76119 -0.556607
lowerneck 11.2976 1.30757 3.47118
upperneck -37.2726 1.28539 0.762567
head -14.7745 -1.14613 -0.208852
rclavicle 0 -9.0447e-014
rhumerus -4.48105 11.1756 -84.0309
rradius 86.8039
rwrist 8.19453
rhand -36.1758 -4.76244
rfingers 7.12502
rthumb -9.27943 -34.5382
lclavicle 0 -9.0447e-014
lhumerus -2.42222 -7.65327 83.3004
lradius 83.6129
lwrist 15.7634
lhand -27.0003 5.34031
lfingers 7.12502
lthumb -0.42034 35.3196
rfemur -71.9692 -1.92973 24.0418
rtibia 81.0404
rfoot -27.5159 -9.24992
rtoes -5.48924
lfemur -70.1419 1.02501 -20.9716
ltibia 78.3213
lfoot -26.6832 9.46856
ltoes -8.64469
1293
root 27.4935 13.7362 -3.47885 198.929 -48.9339 -176.975
lowerback 38.6528 0.686017 2.91703
upperback 14.5044 -1.25154 0.491718
thorax -2.78149 -1.69993 -0.501909
lowerneck 11.258 1.17728 3.5918
upperneck -37.3231 1.05082 0.606796
head -14.7911 -1.24689 -0.257536
rclavicle 2.38542e-015 1.41137e-014
rhumerus -4.56644 10.9695 -83.8413
rradius 87.0726
rwrist 7.93623
rhand -36.3752 -4.80324
rfingers 7.12502
rthumb -9.47186 -34.5704
lclavicle 2.38542e-015 1.41137e-014
lhumerus -2.2318 -7.87118 83.5355
lradius 83.5409
lwrist 15.5749
lhand -26.9318 5.28222
lfingers 7.12502
lthumb -0.354263 35.2617
rfemur -71.9671 -1.87884 24.0916
rtibia 81.0789
rfoot -27.6173 -9.34658
rtoes -5.51411
lfemur -70.2152 1.03997 -20.9071
ltibia 78.4029
lfoot -26.6603 9.36681
ltoes -8.68135
1294
root 27.4971 13.7328 -3.48929 198.873 -49.0018 -176.886
lowerback 38.6267 0.810001 2.94066
upperback 14.5391 -1.09065 0.626003
thorax -2.72778 -1.62961 -0.430249
lowerneck 11.221 1.05079 3.78575
upperneck -37.3803 0.816982 0.384399
head -14.8115 -1.34917 -0.347071
rclavicle 2.28602e-014 1.07741e-013
rhumerus -4.60635 10.7612 -83.6202
rradius 87.282
rwrist 7.80249
rhand -36.5044 -4.84892
rfingers 7.12502
rthumb -9.59646 -34.6104
lclavicle 2.28602e-014 1.07741e-013
lhumerus -2.11899 -8.09292 83.7812
lradius 83.573
lwrist 15.4243
lhand -26.909 5.16968
lfingers 7.12502
lthumb -0.332202 35.1492
rfemur -71.9351 -1.76728 24.1694
rtibia 81.1014
rfoot -27.7377 -9.49819
rtoes -5.5582
lfemur -70.2898 1.16556 -20.8378
ltibia 78.4958
lfoot -26.642 9.15425
ltoes -8.71943
